<?xml version="1.0" encoding="UTF-8"?>
<svg width="64" height="64" viewBox="0 0 24 24" fill="none"
     xmlns="http://www.w3.org/2000/svg" aria-label="Low risk icon" role="img">

  <!-- Green shield base -->
  <path
    d="M12 2L5 4.5V11c0 4.5 3.3 8.5 7 9.9c3.7-1.4 7-5.4 7-9.9V4.5L12 2z"
    fill="#16A34A"
  />

  <!-- Inner soft gradient -->
  <defs>
    <linearGradient id="lowRiskGrad" x1="12" y1="3" x2="12" y2="20" gradientUnits="userSpaceOnUse">
      <stop offset="0" stop-color="#86EFAC"/>
      <stop offset="1" stop-color="#166534"/>
    </linearGradient>
  </defs>
  <path
    d="M12 3.3L6.5 5.2V11c0 3.9 2.8 7.4 5.5 8.7c2.7-1.3 5.5-4.8 5.5-8.7V5.2L12 3.3z"
    fill="url(#lowRiskGrad)"
  />

  <!-- Downward arrow (stable / low volatility) -->
  <path
    d="M12 7.5c.4 0 .75.3.8.7l.6 5.1l1.2-1.2a.8.8 0 1 1 1.1 1.1l-2.6 2.6c-.3.3-.9.3-1.2 0L9.3 13.2a.8.8 0 0 1 1.1-1.1l1.2 1.2l.6-5.1c.05-.4.4-.7.8-.7z"
    fill="#F9FAFB"
  />

  <!-- Bottom dot for subtle "!" counter-shape symmetry -->
  <circle cx="12" cy="5.8" r="0.9" fill="#F9FAFB" />

</svg>
