<?xml version="1.0" encoding="UTF-8"?>
<svg width="64" height="64" viewBox="0 0 24 24" fill="none"
     xmlns="http://www.w3.org/2000/svg" aria-label="Medium risk icon" role="img">

  <!-- Gold shield base -->
  <path
    d="M12 2L5 4.5V11c0 4.5 3.3 8.5 7 9.9c3.7-1.4 7-5.4 7-9.9V4.5L12 2z"
    fill="#FACC15"
  />

  <!-- Inner gradient -->
  <defs>
    <linearGradient id="mediumRiskGrad" x1="12" y1="3" x2="12" y2="21" gradientUnits="userSpaceOnUse">
      <stop offset="0" stop-color="#FEF08A"/>
      <stop offset="1" stop-color="#CA8A04"/>
    </linearGradient>
  </defs>

  <path
    d="M12 3.3L6.5 5.2V11c0 3.9 2.8 7.4 5.5 8.7c2.7-1.3 5.5-4.8 5.5-8.7V5.2L12 3.3z"
    fill="url(#mediumRiskGrad)"
  />

  <!-- Zig-zag sideways arrow (medium volatility) -->
  <path
    d="M7.5 12c0 .4.3.7.7.8l3.8.6l-1.1 1.1a.8.8 0 1 0 1.1 1.1l2.4-2.4c.3-.3.3-.9 0-1.2l-2.4-2.4a.8.8 0 1 0-1.1 1.1l1.1 1.1l-3.8.6a.8.8 0 0 0-.7.8z"
    fill="#FFFFFF"
  />

  <!-- Top dot -->
  <circle cx="12" cy="6" r="0.9" fill="#FFFFFF" />

</svg>
